# xmcd
#
# Track frame offsets: 
#        150
#        17265
#        33682
#
# Disc length: 818 seconds
#
# Revision: 0
# Processed by: cddbd v1.5.2PL0 Copyright (c) Steve Scherf et al.
# Submitted via: ExactAudioCopy v1.0b1
#
DISCID=18033003
DTITLE=Double You - Desperado CDM
DYEAR=1999
DGENRE=Euro-House
TTITLE0=Desperado (Radio Edit)
TTITLE1=Desperado (Supernatural Mix)
TTITLE2=Desperado (Extended)
EXTD=
EXTT0=
EXTT1=
EXTT2=
PLAYORDER=
